<svg width="44" height="44" viewBox="0 0 44 44" fill="none" xmlns="http://www.w3.org/2000/svg">
<path d="M0.5 22C0.5 10.1259 10.1259 0.5 22 0.5C33.8741 0.5 43.5 10.1259 43.5 22C43.5 33.8741 33.8741 43.5 22 43.5C10.1259 43.5 0.5 33.8741 0.5 22Z" fill="white" stroke="#E7E8EA"/>
<g clip-path="url(#clip0)">
<path d="M18.0286 22.0002C18.0286 19.8064 19.8064 18.0276 22.0002 18.0276C24.1939 18.0276 25.9727 19.8064 25.9727 22.0002C25.9727 24.1939 24.1939 25.9727 22.0002 25.9727C19.8064 25.9727 18.0286 24.1939 18.0286 22.0002ZM15.8811 22.0002C15.8811 25.3797 18.6206 28.1192 22.0002 28.1192C25.3797 28.1192 28.1192 25.3797 28.1192 22.0002C28.1192 18.6206 25.3797 15.8811 22.0002 15.8811C18.6206 15.8811 15.8811 18.6206 15.8811 22.0002ZM26.9315 15.6385C26.9314 15.9213 27.0151 16.1978 27.1721 16.433C27.3292 16.6683 27.5524 16.8516 27.8137 16.96C28.075 17.0683 28.3625 17.0967 28.6399 17.0417C28.9173 16.9866 29.1722 16.8505 29.3722 16.6506C29.5723 16.4507 29.7086 16.196 29.7639 15.9186C29.8192 15.6412 29.791 15.3537 29.6828 15.0923C29.5747 14.831 29.3915 14.6076 29.1564 14.4504C28.9213 14.2931 28.6449 14.2092 28.362 14.209H28.3615C27.9824 14.2092 27.6188 14.3599 27.3507 14.6279C27.0826 14.8959 26.9318 15.2594 26.9315 15.6385ZM17.1858 31.7C16.024 31.6471 15.3925 31.4536 14.9729 31.2901C14.4165 31.0735 14.0195 30.8155 13.6022 30.3987C13.1848 29.9819 12.9264 29.5854 12.7108 29.029C12.5472 28.6095 12.3537 27.9778 12.3009 26.816C12.2431 25.5599 12.2315 25.1826 12.2315 22.0003C12.2315 18.8179 12.244 18.4417 12.3009 17.1845C12.3538 16.0227 12.5487 15.3922 12.7108 14.9715C12.9274 14.4152 13.1854 14.0182 13.6022 13.6008C14.019 13.1834 14.4155 12.9251 14.9729 12.7095C15.3923 12.5459 16.024 12.3523 17.1858 12.2995C18.4419 12.2417 18.8193 12.2302 22.0002 12.2302C25.1811 12.2302 25.5588 12.2427 26.8159 12.2995C27.9778 12.3524 28.6082 12.5474 29.0289 12.7095C29.5853 12.9251 29.9822 13.184 30.3996 13.6008C30.817 14.0176 31.0744 14.4152 31.291 14.9715C31.4546 15.391 31.6481 16.0227 31.7009 17.1845C31.7587 18.4417 31.7702 18.8179 31.7702 22.0003C31.7702 25.1826 31.7587 25.5589 31.7009 26.816C31.648 27.9778 31.4535 28.6093 31.291 29.029C31.0744 29.5854 30.8164 29.9823 30.3996 30.3987C29.9828 30.8152 29.5853 31.0735 29.0289 31.2901C28.6094 31.4537 27.9778 31.6472 26.8159 31.7C25.5598 31.7578 25.1825 31.7693 22.0002 31.7693C18.8178 31.7693 18.4416 31.7578 17.1858 31.7ZM17.0872 10.1557C15.8186 10.2134 14.9517 10.4146 14.1947 10.7092C13.4106 11.0134 12.7469 11.4215 12.0837 12.0837C11.4205 12.7459 11.0134 13.4106 10.7092 14.1947C10.4146 14.9522 10.2134 15.8186 10.1557 17.0872C10.0969 18.3578 10.0835 18.764 10.0835 22.0002C10.0835 25.2363 10.0969 25.6426 10.1557 26.9132C10.2134 28.1819 10.4146 29.0482 10.7092 29.8057C11.0134 30.5892 11.4205 31.2547 12.0837 31.9166C12.7468 32.5785 13.4106 32.9861 14.1947 33.2912C14.9531 33.5857 15.8186 33.7869 17.0872 33.8447C18.3584 33.9024 18.764 33.9168 22.0002 33.9168C25.2363 33.9168 25.6426 33.9034 26.9132 33.8447C28.1819 33.7869 29.0482 33.5857 29.8057 33.2912C30.5892 32.9861 31.2534 32.5788 31.9166 31.9166C32.5799 31.2545 32.9861 30.5892 33.2912 29.8057C33.5857 29.0482 33.7878 28.1818 33.8447 26.9132C33.9024 25.6416 33.9159 25.2363 33.9159 22.0002C33.9159 18.764 33.9024 18.3578 33.8447 17.0872C33.7869 15.8185 33.5857 14.9517 33.2912 14.1947C32.9861 13.4111 32.5788 12.7469 31.9166 12.0837C31.2545 11.4205 30.5892 11.0134 29.8066 10.7092C29.0482 10.4146 28.1818 10.2125 26.9141 10.1557C25.6435 10.0979 25.2373 10.0835 22.0011 10.0835C18.7649 10.0835 18.3584 10.0969 17.0872 10.1557Z" fill="url(#paint0_radial)"/>
<path d="M18.0286 22.0002C18.0286 19.8064 19.8064 18.0276 22.0002 18.0276C24.1939 18.0276 25.9727 19.8064 25.9727 22.0002C25.9727 24.1939 24.1939 25.9727 22.0002 25.9727C19.8064 25.9727 18.0286 24.1939 18.0286 22.0002ZM15.8811 22.0002C15.8811 25.3797 18.6206 28.1192 22.0002 28.1192C25.3797 28.1192 28.1192 25.3797 28.1192 22.0002C28.1192 18.6206 25.3797 15.8811 22.0002 15.8811C18.6206 15.8811 15.8811 18.6206 15.8811 22.0002ZM26.9315 15.6385C26.9314 15.9213 27.0151 16.1978 27.1721 16.433C27.3292 16.6683 27.5524 16.8516 27.8137 16.96C28.075 17.0683 28.3625 17.0967 28.6399 17.0417C28.9173 16.9866 29.1722 16.8505 29.3722 16.6506C29.5723 16.4507 29.7086 16.196 29.7639 15.9186C29.8192 15.6412 29.791 15.3537 29.6828 15.0923C29.5747 14.831 29.3915 14.6076 29.1564 14.4504C28.9213 14.2931 28.6449 14.2092 28.362 14.209H28.3615C27.9824 14.2092 27.6188 14.3599 27.3507 14.6279C27.0826 14.8959 26.9318 15.2594 26.9315 15.6385ZM17.1858 31.7C16.024 31.6471 15.3925 31.4536 14.9729 31.2901C14.4165 31.0735 14.0195 30.8155 13.6022 30.3987C13.1848 29.9819 12.9264 29.5854 12.7108 29.029C12.5472 28.6095 12.3537 27.9778 12.3009 26.816C12.2431 25.5599 12.2315 25.1826 12.2315 22.0003C12.2315 18.8179 12.244 18.4417 12.3009 17.1845C12.3538 16.0227 12.5487 15.3922 12.7108 14.9715C12.9274 14.4152 13.1854 14.0182 13.6022 13.6008C14.019 13.1834 14.4155 12.9251 14.9729 12.7095C15.3923 12.5459 16.024 12.3523 17.1858 12.2995C18.4419 12.2417 18.8193 12.2302 22.0002 12.2302C25.1811 12.2302 25.5588 12.2427 26.8159 12.2995C27.9778 12.3524 28.6082 12.5474 29.0289 12.7095C29.5853 12.9251 29.9822 13.184 30.3996 13.6008C30.817 14.0176 31.0744 14.4152 31.291 14.9715C31.4546 15.391 31.6481 16.0227 31.7009 17.1845C31.7587 18.4417 31.7702 18.8179 31.7702 22.0003C31.7702 25.1826 31.7587 25.5589 31.7009 26.816C31.648 27.9778 31.4535 28.6093 31.291 29.029C31.0744 29.5854 30.8164 29.9823 30.3996 30.3987C29.9828 30.8152 29.5853 31.0735 29.0289 31.2901C28.6094 31.4537 27.9778 31.6472 26.8159 31.7C25.5598 31.7578 25.1825 31.7693 22.0002 31.7693C18.8178 31.7693 18.4416 31.7578 17.1858 31.7ZM17.0872 10.1557C15.8186 10.2134 14.9517 10.4146 14.1947 10.7092C13.4106 11.0134 12.7469 11.4215 12.0837 12.0837C11.4205 12.7459 11.0134 13.4106 10.7092 14.1947C10.4146 14.9522 10.2134 15.8186 10.1557 17.0872C10.0969 18.3578 10.0835 18.764 10.0835 22.0002C10.0835 25.2363 10.0969 25.6426 10.1557 26.9132C10.2134 28.1819 10.4146 29.0482 10.7092 29.8057C11.0134 30.5892 11.4205 31.2547 12.0837 31.9166C12.7468 32.5785 13.4106 32.9861 14.1947 33.2912C14.9531 33.5857 15.8186 33.7869 17.0872 33.8447C18.3584 33.9024 18.764 33.9168 22.0002 33.9168C25.2363 33.9168 25.6426 33.9034 26.9132 33.8447C28.1819 33.7869 29.0482 33.5857 29.8057 33.2912C30.5892 32.9861 31.2534 32.5788 31.9166 31.9166C32.5799 31.2545 32.9861 30.5892 33.2912 29.8057C33.5857 29.0482 33.7878 28.1818 33.8447 26.9132C33.9024 25.6416 33.9159 25.2363 33.9159 22.0002C33.9159 18.764 33.9024 18.3578 33.8447 17.0872C33.7869 15.8185 33.5857 14.9517 33.2912 14.1947C32.9861 13.4111 32.5788 12.7469 31.9166 12.0837C31.2545 11.4205 30.5892 11.0134 29.8066 10.7092C29.0482 10.4146 28.1818 10.2125 26.9141 10.1557C25.6435 10.0979 25.2373 10.0835 22.0011 10.0835C18.7649 10.0835 18.3584 10.0969 17.0872 10.1557Z" fill="url(#paint1_radial)"/>
</g>
<defs>
<radialGradient id="paint0_radial" cx="0" cy="0" r="1" gradientUnits="userSpaceOnUse" gradientTransform="translate(13.2499 34.0294) scale(31.1124)">
<stop offset="0.09" stop-color="#FA8F21"/>
<stop offset="0.78" stop-color="#D82D7E"/>
</radialGradient>
<radialGradient id="paint1_radial" cx="0" cy="0" r="1" gradientUnits="userSpaceOnUse" gradientTransform="translate(24.5374 35.0971) scale(24.5209)">
<stop offset="0.64" stop-color="#8C3AAA" stop-opacity="0"/>
<stop offset="1" stop-color="#8C3AAA"/>
</radialGradient>
<clipPath id="clip0">
<rect width="23.8333" height="23.8333" fill="white" transform="translate(10.0835 10.0835)"/>
</clipPath>
</defs>
</svg>
