<svg width="64" height="64" viewBox="0 0 64 64" fill="none" xmlns="http://www.w3.org/2000/svg">
<rect width="24" height="2" rx="1" transform="matrix(-1 0 0 1 38 18)" fill="#636366"/>
<rect width="24" height="2" rx="1" transform="matrix(-1 0 0 1 38 26)" fill="#636366"/>
<rect width="24" height="2" rx="1" transform="matrix(-1 0 0 1 38 34)" fill="#636366"/>
<rect width="24" height="2" rx="1" transform="matrix(-1 0 0 1 38 42)" fill="#636366"/>
<path fill-rule="evenodd" clip-rule="evenodd" d="M46.0363 44.0577L46.0363 7.69149C46.0363 6.7573 45.2707 6 44.3264 6L6.70985 6C5.76553 6 5 6.7573 5 7.69149L5 44.0585L5 49.8378C5 54.8979 9.14658 59 14.2617 59H51.7358V58.9988C51.7831 58.9996 51.8306 59 51.8782 59C56.3638 59 60 55.4028 60 50.9654V47.7234C60 47.4243 59.8799 47.1375 59.6661 46.926C59.4524 46.7146 59.1624 46.5957 58.8601 46.5957H52.4482C51.8186 46.5957 51.3083 47.1006 51.3083 47.7234C51.3083 48.3462 51.8186 48.8511 52.4482 48.8511H57.7202V50.9654C57.7202 54.1572 55.1047 56.7447 51.8782 56.7447C48.6518 56.7447 46.0363 54.1572 46.0363 50.9654V45.1862V44.0585C46.0363 44.0583 46.0363 44.058 46.0363 44.0577ZM43.7565 45.1862V44.0585L43.7565 8.25532L7.2798 8.25532L7.2798 44.0585C7.2798 44.0593 7.27979 44.0602 7.27979 44.061L7.27979 49.8378C7.27979 53.6524 10.4057 56.7447 14.2617 56.7447H46.236C44.7072 55.2836 43.7565 53.2344 43.7565 50.9654V45.1862Z" fill="#0A84FF"/>
</svg>
