<svg width="64" height="64" viewBox="0 0 64 64" fill="none" xmlns="http://www.w3.org/2000/svg">
<path fill-rule="evenodd" clip-rule="evenodd" d="M13.739 23.0434V48.6086C13.739 49.281 13.1939 49.826 12.5216 49.826C11.8492 49.826 11.3042 49.281 11.3042 48.6086V22.4347C11.3042 21.4262 12.1218 20.6086 13.1303 20.6086H41.1303C42.1388 20.6086 42.9564 21.4262 42.9564 22.4347V47.9999C42.9564 49.0085 42.1388 49.826 41.1303 49.826H22.8694C21.8609 49.826 21.0433 49.0085 21.0433 47.9999V43.7391C21.0433 43.0667 21.5884 42.5217 22.2607 42.5217C22.9331 42.5217 23.4781 43.0667 23.4781 43.7391V47.3913H40.5216V23.0434H29.5651V33.3913C29.5651 34.3998 28.7475 35.2173 27.739 35.2173H22.2607C21.5884 35.2173 21.0433 34.6723 21.0433 33.9999C21.0433 33.3276 21.5884 32.7826 22.2607 32.7826H27.1303V23.0434H13.739Z" fill="#2D313D"/>
<path fill-rule="evenodd" clip-rule="evenodd" d="M47.8261 40.087V41C47.8261 41.6723 48.3711 42.2174 49.0435 42.2174H51.3261C54.7719 42.2174 57.5652 45.0107 57.5652 48.4565C57.5652 51.9023 54.7719 54.6957 51.3261 54.6957H46.4565H43.8696H6.43478V15.7391H42.0435C42.7158 15.7391 43.2609 15.1941 43.2609 14.5217C43.2609 13.8494 42.7158 13.3043 42.0435 13.3043H5.82609C4.81756 13.3043 4 14.1219 4 15.1304V55.3044C4 56.3129 4.81757 57.1304 5.82609 57.1304H43.8696H46.4565H51.3261C56.091 57.1304 59.9586 53.2882 59.9997 48.5329C59.9999 48.5582 60 48.5834 60 48.6087V48.4565V14.5217C60 9.81531 56.1847 6 51.4783 6H49.0435C48.3711 6 47.8261 6.54505 47.8261 7.21739V39.7826V40.087ZM50.2609 39.7826H51.3261C53.7756 39.7826 55.9879 40.798 57.5652 42.4307V14.5217C57.5652 11.16 54.84 8.43478 51.4783 8.43478H50.2609V39.7826Z" fill="#3266CA"/>
</svg>
