<svg width="64" height="64" viewBox="0 0 64 64" fill="none" xmlns="http://www.w3.org/2000/svg">
<path fill-rule="evenodd" clip-rule="evenodd" d="M51.4088 26.9089C50.7059 26.9089 50.1361 27.4788 50.1361 28.1817V38.0453H45.0452C44.3423 38.0453 43.7725 38.6151 43.7725 39.318V45.6817C43.7725 46.3846 44.3423 46.9544 45.0452 46.9544H57.7725C58.4754 46.9544 59.0452 46.3846 59.0452 45.6817V39.318C59.0452 38.6151 58.4754 38.0453 57.7725 38.0453H52.6816V28.1817C52.6816 27.4788 52.1117 26.9089 51.4088 26.9089ZM46.3179 44.4089V40.5908H56.4997V44.4089H46.3179Z" fill="#2D313D"/>
<path fill-rule="evenodd" clip-rule="evenodd" d="M13.2273 4.95454V11.8033C13.1811 11.8084 13.1352 11.8161 13.0898 11.8263L4.99437 13.6408C4.41313 13.771 4 14.287 4 14.8827V21.8182C4 22.5211 4.56982 23.0909 5.27273 23.0909H13.2273V57.4545H6.54545C5.84255 57.4545 5.27273 58.0244 5.27273 58.7273C5.27273 59.4302 5.84255 60 6.54545 60H32.6364C33.3393 60 33.9091 59.4302 33.9091 58.7273C33.9091 58.0244 33.3393 57.4545 32.6364 57.4545H25.9545V23.0909H59.0455C59.7484 23.0909 60.3182 22.5211 60.3182 21.8182V15.0621C60.3182 14.3889 59.7939 13.8321 59.1219 13.7916L25.9545 11.7955V4.95455C25.9545 4.42736 25.5272 4 25 4H14.1818C13.6546 4 13.2273 4.42736 13.2273 4.95454ZM23.4091 57.4545V55.0969L15.7727 47.4604V57.4545H23.4091ZM23.4091 6.54545H15.7727V9.95983L23.4091 17.5964V6.54545ZM15.7727 26.1459V13.5597L22.0657 19.8529L15.7727 26.1459ZM15.7727 42.5122V29.926L22.0657 36.2192L15.7727 42.5122ZM23.4091 39.0246V51.4971L17.173 45.2608L23.4091 39.0246ZM23.4091 22.1093V33.9627L17.4825 28.0359L23.4091 22.1093ZM6.54545 20.5455H13.2273V14.4041L6.54545 15.9017V20.5455ZM57.7727 20.5455H25.9545V14.3455L57.7727 16.2605V20.5455Z" fill="#3266CA"/>
</svg>
