<svg width="64" height="64" viewBox="0 0 64 64" fill="none" xmlns="http://www.w3.org/2000/svg">
<path fill-rule="evenodd" clip-rule="evenodd" d="M50.0642 28.3871H31.9996C30.6695 28.3871 29.591 29.4655 29.591 30.7957V35.7334C32.3395 36.2913 34.4082 38.7213 34.4082 41.6344V42.5377C34.4082 42.7039 34.5429 42.8387 34.7093 42.8387H47.3545C47.5209 42.8387 47.6556 42.7039 47.6556 42.5377V41.6344C47.6556 38.7213 49.7243 36.2913 52.4728 35.7334V30.7957C52.4728 29.4655 51.3943 28.3871 50.0642 28.3871ZM54.8814 35.7334V30.7957C54.8814 28.1353 52.7247 25.9785 50.0642 25.9785H31.9996C29.3391 25.9785 27.1824 28.1353 27.1824 30.7957V35.7334C24.434 36.2913 22.3652 38.7213 22.3652 41.6344V53.6774C22.3652 54.3425 22.9045 54.8817 23.5695 54.8817H27.1824V58.7957C27.1824 59.4608 27.7217 60 28.3867 60C29.0518 60 29.591 59.4608 29.591 58.7957V54.8817H52.4728V58.7957C52.4728 59.4608 53.012 60 53.6771 60C54.3421 60 54.8814 59.4608 54.8814 58.7957V54.8817H58.4943C59.1593 54.8817 59.6986 54.3425 59.6986 53.6774V41.6344C59.6986 38.7213 57.6298 36.2913 54.8814 35.7334ZM50.0642 41.6344C50.0642 39.6391 51.6818 38.0215 53.6771 38.0215C55.6723 38.0215 57.29 39.6391 57.29 41.6344V52.4731H24.7738V41.6344C24.7738 39.6391 26.3915 38.0215 28.3867 38.0215C30.382 38.0215 31.9996 39.6391 31.9996 41.6344V42.5377C31.9996 44.0342 33.2128 45.2473 34.7093 45.2473H47.3545C48.851 45.2473 50.0642 44.0342 50.0642 42.5377V41.6344Z" fill="#3266CA"/>
<path fill-rule="evenodd" clip-rule="evenodd" d="M15.1399 24.7742H12.7313V56.9892H9.41944C8.58804 56.9892 7.91406 57.6632 7.91406 58.4946C7.91406 59.326 8.58804 60 9.41944 60H12.7313H15.1399H18.4517C19.2831 60 19.9571 59.326 19.9571 58.4946C19.9571 57.6632 19.2831 56.9892 18.4517 56.9892H15.1399V24.7742Z" fill="#2D313D"/>
<path fill-rule="evenodd" clip-rule="evenodd" d="M9.83895 6.4086L6.4086 17.4619V19.0538H21.4624V17.4619L18.032 6.4086H9.83895ZM8.95173 4C8.42411 4 7.95793 4.34344 7.80155 4.84735L4.05412 16.9224C4.01824 17.038 4 17.1583 4 17.2794V20.2581C4 20.9232 4.53918 21.4624 5.2043 21.4624H22.6667C23.3318 21.4624 23.871 20.9232 23.871 20.2581V17.2794C23.871 17.1583 23.8527 17.038 23.8169 16.9224L20.0694 4.84735C19.913 4.34344 19.4469 4 18.9192 4H8.95173Z" fill="#2D313D"/>
</svg>
