<svg width="44" height="44" viewBox="0 0 44 44" fill="none" xmlns="http://www.w3.org/2000/svg">
<path d="M22 44C34.1503 44 44 34.1503 44 22C44 9.84974 34.1503 0 22 0C9.84974 0 0 9.84974 0 22C0 34.1503 9.84974 44 22 44Z" fill="#25D366"/>
<path fill-rule="evenodd" clip-rule="evenodd" d="M22.725 34.24H22.7196C20.5302 34.2393 18.3789 33.69 16.4681 32.6477L9.5332 34.4669L11.3891 27.688C10.2443 25.704 9.6419 23.4536 9.64288 21.148C9.64575 13.9351 15.5143 8.06689 22.7249 8.06689C26.2245 8.0684 29.509 9.43077 31.9789 11.9035C34.4488 14.3761 35.8082 17.6629 35.8068 21.1583C35.8039 28.3695 29.9377 34.2371 22.725 34.24ZM16.7894 30.2794L17.1864 30.5151C18.8559 31.5057 20.7695 32.0299 22.7206 32.0307H22.725C28.718 32.0307 33.5956 27.1529 33.598 21.1575C33.5991 18.2521 32.4693 15.5204 30.4164 13.4651C28.3635 11.4099 25.6335 10.2774 22.7293 10.2764C16.7317 10.2764 11.854 15.1537 11.8516 21.1487C11.8508 23.2032 12.4256 25.2041 13.514 26.9352L13.7726 27.3466L12.6741 31.359L16.7894 30.2794ZM28.8679 23.9748C29.0959 24.085 29.2498 24.1594 29.3156 24.2691C29.3973 24.4054 29.3973 25.0599 29.125 25.8235C28.8525 26.587 27.5467 27.2839 26.9186 27.3777C26.3555 27.4619 25.6428 27.497 24.8598 27.2482C24.385 27.0975 23.7762 26.8964 22.9964 26.5596C19.932 25.2364 17.8611 22.2664 17.4697 21.7051C17.4423 21.6658 17.4232 21.6383 17.4125 21.624L17.4098 21.6205C17.2368 21.3897 16.0778 19.8432 16.0778 18.2426C16.0778 16.737 16.8174 15.9478 17.1578 15.5845C17.1811 15.5596 17.2026 15.5367 17.2218 15.5157C17.5214 15.1885 17.8755 15.1067 18.0934 15.1067C18.3113 15.1067 18.5295 15.1087 18.7199 15.1183C18.7434 15.1194 18.7679 15.1193 18.7931 15.1191C18.9836 15.118 19.2211 15.1166 19.4554 15.6794C19.5455 15.8959 19.6774 16.217 19.8165 16.5556C20.0977 17.2404 20.4085 17.9969 20.4632 18.1064C20.5449 18.27 20.5994 18.4609 20.4904 18.6791C20.4741 18.7118 20.4589 18.7427 20.4445 18.7722C20.3626 18.9393 20.3024 19.0622 20.1636 19.2244C20.1089 19.2881 20.0525 19.3569 19.996 19.4256C19.8836 19.5626 19.7711 19.6995 19.6732 19.797C19.5096 19.96 19.3392 20.1369 19.5299 20.4641C19.7206 20.7914 20.3766 21.8617 21.3483 22.7285C22.3929 23.6602 23.3008 24.054 23.7609 24.2536C23.8508 24.2926 23.9236 24.3242 23.977 24.3509C24.3037 24.5146 24.4944 24.4872 24.6851 24.2691C24.8758 24.051 25.5022 23.3146 25.7201 22.9874C25.938 22.6603 26.156 22.7148 26.4555 22.8238C26.7552 22.933 28.3623 23.7237 28.6891 23.8873C28.7529 23.9192 28.8126 23.9481 28.8679 23.9748Z" fill="#FDFDFD"/>
</svg>
