<svg width="44" height="44" viewBox="0 0 44 44" fill="none" xmlns="http://www.w3.org/2000/svg">
<path d="M0 22C0 9.84974 9.84974 0 22 0C34.1503 0 44 9.84974 44 22C44 34.1503 34.1503 44 22 44C9.84974 44 0 34.1503 0 22Z" fill="#FF0000"/>
<path d="M33.2429 16.5669C32.973 15.5301 32.1778 14.7137 31.1681 14.4367C29.3382 13.9331 21.9999 13.9331 21.9999 13.9331C21.9999 13.9331 14.6617 13.9331 12.8317 14.4367C11.8219 14.7137 11.0267 15.5301 10.7569 16.5669C10.2666 18.4459 10.2666 22.3664 10.2666 22.3664C10.2666 22.3664 10.2666 26.2869 10.7569 28.166C11.0267 29.2027 11.8219 30.0191 12.8317 30.2964C14.6617 30.7998 21.9999 30.7998 21.9999 30.7998C21.9999 30.7998 29.3382 30.7998 31.1681 30.2964C32.1778 30.0191 32.973 29.2027 33.2429 28.166C33.7333 26.2869 33.7333 22.3664 33.7333 22.3664C33.7333 22.3664 33.7333 18.4459 33.2429 16.5669Z" fill="white"/>
<path d="M19.7998 26.4002V19.0669L25.6665 22.7337L19.7998 26.4002Z" fill="#FF0000"/>
</svg>
